<svg width="19" height="19" viewBox="0 0 19 19" fill="none" xmlns="http://www.w3.org/2000/svg">
<path fill-rule="evenodd" clip-rule="evenodd" d="M12.6503 8.04485C12.6503 8.04485 11.1107 7.29581 10.3242 6.55859C9.40195 5.6941 8.49412 3.88869 8.49412 3.88869L9.57422 2.80859C9.57422 2.80859 11.2073 5.27453 12.5742 6.55859C13.6416 7.56128 15.5742 8.80859 15.5742 8.80859C15.5742 8.80859 13.6416 10.0559 12.5742 11.0586C11.2073 12.3427 9.57422 14.8086 9.57422 14.8086L8.49412 13.7285C8.49412 13.7285 9.40195 11.9231 10.3242 11.0586C11.1107 10.3214 12.6503 9.57234 12.6503 9.57234L3.57422 9.57234V8.04485L12.6503 8.04485Z" fill="#212121"/>
</svg>
